<svg width="560" height="150" viewBox="0 0 560 150" xmlns="http://www.w3.org/2000/svg" fill="none">
  <defs>
    <linearGradient id="word" x1="0" y1="0" x2="1" y2="0">
      <stop offset="0" stop-color="#f3f4f6"/>
      <stop offset="1" stop-color="#cbd5e1"/>
    </linearGradient>
  </defs>

  <!-- ===== Emblem: tyre + 5-spoke wheel ===== -->
  <g transform="translate(75 75)">
    <!-- tyre -->
    <circle r="62" fill="#0b1220"/>
    <circle r="55" fill="none" stroke="#1f2937" stroke-width="13"/>
    <circle r="62" fill="none" stroke="#374151" stroke-width="2"/>

    <!-- alloy rim: simple flat 5-spoke -->
    <circle r="40" fill="#111827" stroke="#94a3b8" stroke-width="3"/>
    <g stroke="#cbd5e1" stroke-width="8" stroke-linecap="round">
      <line x1="0" y1="-11" x2="0" y2="-37"/>
      <line x1="0" y1="-11" x2="0" y2="-37" transform="rotate(72)"/>
      <line x1="0" y1="-11" x2="0" y2="-37" transform="rotate(144)"/>
      <line x1="0" y1="-11" x2="0" y2="-37" transform="rotate(216)"/>
      <line x1="0" y1="-11" x2="0" y2="-37" transform="rotate(288)"/>
    </g>
    <circle r="11" fill="#cbd5e1"/>
    <circle r="4" fill="#0b1220"/>
  </g>

  <!-- ===== Wordmark ===== -->
  <g transform="translate(160 0)">
    <!-- slashes -->
    <g transform="skewX(-10)">
      <rect x="0" y="46" width="46" height="9" rx="2" fill="#475569"/>
      <rect x="0" y="62" width="34" height="6" rx="2" fill="#475569"/>
      <rect x="0" y="74" width="22" height="5" rx="2" fill="#475569"/>
    </g>
    <text x="0" y="58" font-family="Segoe UI, Arial, sans-serif"
          font-size="40" font-weight="800" font-style="italic"
          fill="url(#word)" letter-spacing="1">SI TYRE</text>
    <text x="2" y="98" font-family="Segoe UI, Arial, sans-serif"
          font-size="34" font-weight="800" font-style="italic"
          fill="#2563eb" letter-spacing="6">ANALYZER</text>
    <text x="3" y="124" font-family="Segoe UI, Arial, sans-serif"
          font-size="15" font-weight="600" fill="#94a3b8"
          letter-spacing="5">SJ&#216;LYST INNOVATIONS</text>
  </g>
</svg>
